<?xml version="1.0" encoding="UTF-8" standalone="no"?>
<svg width="170px" height="40px" viewBox="0 0 170 40" version="1.1" xmlns="http://www.w3.org/2000/svg" xmlns:xlink="http://www.w3.org/1999/xlink">
    <!-- Generator: Sketch 3.6.1 (26313) - http://www.bohemiancoding.com/sketch -->
    <title>Group 9</title>
    <desc>Created with Sketch.</desc>
    <defs></defs>
    <g id="Page-1" stroke="none" stroke-width="1" fill="none" fill-rule="evenodd">
        <g id="alex-v2-players_management-1-·-desktop_1920" transform="translate(-20.000000, -15.000000)" fill="#FFFFFF">
            <g id="sidebar" transform="translate(-133.000000, 0.000000)">
                <g id="top" transform="translate(131.000000, 0.000000)">
                    <g id="header" transform="translate(17.000000, 10.000000)">
                        <g id="brand" transform="translate(5.000000, 5.000000)">
                            <g id="Group-9">
                                <path d="M22.7045455,27.8461538 C23.0113636,26.3076923 22.78125,24.6923077 22.0142045,23.4615385 C21.5539773,22.6923077 20.9403409,22.0769231 20.0965909,21.6153846 C19.8664773,22.3076923 19.6363636,22.9230769 19.2528409,23.4615385 C18.2556818,25.0769231 15.9545455,25.7692308 14.4971591,24.3076923 C12.5028409,22.3846154 13.9602273,18.6153846 17.9488636,18.7692308 L18.4090909,18.8461538 C18.9460227,13.7692308 16.5681818,6.30769231 12.8863636,2.92307692 C9.12784091,6.30769231 6.82670455,13.7692308 7.36363636,18.8461538 L7.82386364,18.7692308 C11.8125,18.6153846 13.2698864,22.3846154 11.2755682,24.3076923 C9.81818182,25.6923077 7.51704545,25.0769231 6.51988636,23.4615385 C6.21306818,22.9230769 5.90625,22.3076923 5.67613636,21.6153846 C4.83238636,22.0769231 4.21875,22.6923077 3.75852273,23.4615385 C2.99147727,24.6923077 2.76136364,26.3076923 3.06818182,27.8461538 C6.59659091,26.5384615 9.43465909,26.6153846 12.8863636,28.0769231 C16.3380682,26.5384615 19.1761364,26.5384615 22.7045455,27.8461538 L22.7045455,27.8461538 Z M12.8096591,0.0769230769 L12.8096591,0.0769230769 L12.8863636,0.0769230769 C14.1903409,1 15.1875,1.92307692 16.1079545,3.30769231 C19.1761364,7.53846154 21.09375,14.3846154 20.4801136,19.4615385 C21.9375,20.0769231 23.0880682,21.1538462 23.7784091,22.3846154 L23.7784091,22.3846154 C25.0056818,24.4615385 25.4659091,28.6153846 23.7784091,30.7692308 C21.5539773,29.5384615 18.4090909,28.6153846 15.1875,29.4615385 L14.5738636,29.7692308 C16.2613636,32.0769231 16.2613636,35.0769231 14.7272727,37.3846154 C14.0369318,38.3846154 13.5767045,38.6923077 12.8096591,39.3846154 C12.0426136,38.6923077 11.5056818,38.2307692 10.8920455,37.3846154 C9.35795455,35.0769231 9.35795455,32.0769231 11.0454545,29.7692308 L10.4318182,29.4615385 C7.28693182,28.5384615 4.06534091,29.5384615 1.84090909,30.7692308 C0.0767045455,28.6153846 0.613636364,24.4615385 1.84090909,22.3846154 L1.84090909,22.3846154 C2.60795455,21.0769231 3.75852273,20.0769231 5.13920455,19.4615385 C4.60227273,14.3076923 6.51988636,7.46153846 9.58806818,3.23076923 C10.5852273,1.92307692 11.5056818,0.923076923 12.8096591,0.0769230769 L12.8096591,0.0769230769 Z M12.8096591,36.2307692 L12.8096591,36.2307692 L12.8863636,36.2307692 C13.8835227,34.8461538 14.1136364,32.2307692 12.8096591,30.9230769 C11.6590909,32.3076923 11.8125,34.8461538 12.8096591,36.2307692 L12.8096591,36.2307692 Z M16.3380682,22.8461538 C17.2585227,22.8461538 17.71875,21.6923077 17.9488636,20.9230769 C17.71875,20.9230769 17.4886364,20.9230769 17.2585227,21 C16.7982955,21.0769231 16.2613636,21.2307692 15.9545455,21.6153846 C15.5710227,22.1538462 15.9545455,22.8461538 16.3380682,22.8461538 L16.3380682,22.8461538 Z M9.43465909,22.8461538 C8.51420455,22.8461538 8.05397727,21.6923077 7.82386364,20.9230769 C8.05397727,20.9230769 8.28409091,20.9230769 8.51420455,21 C8.97443182,21.0769231 9.51136364,21.2307692 9.81818182,21.6153846 C10.2017045,22.1538462 9.81818182,22.8461538 9.43465909,22.8461538 L9.43465909,22.8461538 Z" id="logo-icon"></path>
                                <text id="Heroic-Labs" font-family="Montserrat-Regular, Montserrat" font-size="21" font-weight="normal" letter-spacing="0.190909088">
                                    <tspan x="45" y="27">Heroic Labs</tspan>
                                </text>
                            </g>
                        </g>
                    </g>
                </g>
            </g>
        </g>
    </g>
</svg>