<?xml version="1.0" encoding="UTF-8" standalone="no"?>
<svg width="170px" height="40px" viewBox="0 0 170 40" version="1.1" xmlns="http://www.w3.org/2000/svg" xmlns:xlink="http://www.w3.org/1999/xlink">
    <!-- Generator: Sketch 3.6.1 (26313) - http://www.bohemiancoding.com/sketch -->
    <title>Group 9</title>
    <desc>Created with Sketch.</desc>
    <defs></defs>
    <g id="UI" stroke="none" stroke-width="1" fill="none" fill-rule="evenodd">
        <g id="Group-9" fill="#FFFFFF">
            <g id="Group-4">
                <path d="M22.7045455,27.8461538 C23.0113636,26.3076923 22.78125,24.6923077 22.0142045,23.4615385 C21.5539773,22.6923077 20.9403409,22.0769231 20.0965909,21.6153846 C19.8664773,22.3076923 19.6363636,22.9230769 19.2528409,23.4615385 C18.2556818,25.0769231 15.9545455,25.7692308 14.4971591,24.3076923 C12.5028409,22.3846154 13.9602273,18.6153846 17.9488636,18.7692308 L18.4090909,18.8461538 C18.9460227,13.7692308 16.5681818,6.30769231 12.8863636,2.92307692 C9.12784091,6.30769231 6.82670455,13.7692308 7.36363636,18.8461538 L7.82386364,18.7692308 C11.8125,18.6153846 13.2698864,22.3846154 11.2755682,24.3076923 C9.81818182,25.6923077 7.51704545,25.0769231 6.51988636,23.4615385 C6.21306818,22.9230769 5.90625,22.3076923 5.67613636,21.6153846 C4.83238636,22.0769231 4.21875,22.6923077 3.75852273,23.4615385 C2.99147727,24.6923077 2.76136364,26.3076923 3.06818182,27.8461538 C6.59659091,26.5384615 9.43465909,26.6153846 12.8863636,28.0769231 C16.3380682,26.5384615 19.1761364,26.5384615 22.7045455,27.8461538 L22.7045455,27.8461538 Z M12.8096591,0.0769230769 L12.8096591,0.0769230769 L12.8863636,0.0769230769 C14.1903409,1 15.1875,1.92307692 16.1079545,3.30769231 C19.1761364,7.53846154 21.09375,14.3846154 20.4801136,19.4615385 C21.9375,20.0769231 23.0880682,21.1538462 23.7784091,22.3846154 L23.7784091,22.3846154 C25.0056818,24.4615385 25.4659091,28.6153846 23.7784091,30.7692308 C21.5539773,29.5384615 18.4090909,28.6153846 15.1875,29.4615385 L14.5738636,29.7692308 C16.2613636,32.0769231 16.2613636,35.0769231 14.7272727,37.3846154 C14.0369318,38.3846154 13.5767045,38.6923077 12.8096591,39.3846154 C12.0426136,38.6923077 11.5056818,38.2307692 10.8920455,37.3846154 C9.35795455,35.0769231 9.35795455,32.0769231 11.0454545,29.7692308 L10.4318182,29.4615385 C7.28693182,28.5384615 4.06534091,29.5384615 1.84090909,30.7692308 C0.0767045455,28.6153846 0.613636364,24.4615385 1.84090909,22.3846154 L1.84090909,22.3846154 C2.60795455,21.0769231 3.75852273,20.0769231 5.13920455,19.4615385 C4.60227273,14.3076923 6.51988636,7.46153846 9.58806818,3.23076923 C10.5852273,1.92307692 11.5056818,0.923076923 12.8096591,0.0769230769 L12.8096591,0.0769230769 Z M12.8096591,36.2307692 L12.8096591,36.2307692 L12.8863636,36.2307692 C13.8835227,34.8461538 14.1136364,32.2307692 12.8096591,30.9230769 C11.6590909,32.3076923 11.8125,34.8461538 12.8096591,36.2307692 L12.8096591,36.2307692 Z M16.3380682,22.8461538 C17.2585227,22.8461538 17.71875,21.6923077 17.9488636,20.9230769 C17.71875,20.9230769 17.4886364,20.9230769 17.2585227,21 C16.7982955,21.0769231 16.2613636,21.2307692 15.9545455,21.6153846 C15.5710227,22.1538462 15.9545455,22.8461538 16.3380682,22.8461538 L16.3380682,22.8461538 Z M9.43465909,22.8461538 C8.51420455,22.8461538 8.05397727,21.6923077 7.82386364,20.9230769 C8.05397727,20.9230769 8.28409091,20.9230769 8.51420455,21 C8.97443182,21.0769231 9.51136364,21.2307692 9.81818182,21.6153846 C10.2017045,22.1538462 9.81818182,22.8461538 9.43465909,22.8461538 L9.43465909,22.8461538 Z" id="logo-icon"></path>
                <path d="M47.037,27 L47.037,12.321 L49.515,12.321 L49.515,18.684 L56.802,18.684 L56.802,12.321 L59.28,12.321 L59.28,27 L56.802,27 L56.802,20.994 L49.515,20.994 L49.515,27 L47.037,27 Z M73.6039091,22.443 L64.8469091,22.443 C64.9029094,23.2550041 65.2739057,23.9094975 65.9599091,24.4065 C66.6459125,24.9035025 67.4299047,25.152 68.3119091,25.152 C69.7119161,25.152 70.7759054,24.7110044 71.5039091,23.829 L72.8479091,25.299 C71.6439031,26.5450062 70.0759187,27.168 68.1439091,27.168 C66.5759012,27.168 65.2424146,26.6465052 64.1434091,25.6035 C63.0444036,24.5604948 62.4949091,23.1605088 62.4949091,21.4035 C62.4949091,19.6464912 63.0549035,18.2500052 64.1749091,17.214 C65.2949147,16.1779948 66.6144015,15.66 68.1334091,15.66 C69.6524167,15.66 70.9439038,16.1184954 72.0079091,17.0355 C73.0719144,17.9525046 73.6039091,19.215992 73.6039091,20.826 L73.6039091,22.443 Z M64.8469091,20.595 L71.2519091,20.595 C71.2519091,19.6569953 70.957912,18.9360025 70.3699091,18.432 C69.7819061,17.9279975 69.0574134,17.676 68.1964091,17.676 C67.3354048,17.676 66.5619125,17.9384974 65.8759091,18.4635 C65.1899057,18.9885026 64.8469091,19.6989955 64.8469091,20.595 L64.8469091,20.595 Z M82.2368182,18.033 C81.0748124,18.033 80.1998211,18.4109962 79.6118182,19.167 C79.0238152,19.9230038 78.7298182,20.9379936 78.7298182,22.212 L78.7298182,27 L76.3778182,27 L76.3778182,15.828 L78.7298182,15.828 L78.7298182,18.075 C79.1078201,17.3749965 79.6223149,16.8010022 80.2733182,16.353 C80.9243214,15.9049978 81.6138145,15.6740001 82.3418182,15.66 L82.3628182,18.033 L82.2368182,18.033 L82.2368182,18.033 Z M89.8407273,25.068 C90.8627324,25.068 91.7062239,24.7285034 92.3712273,24.0495 C93.0362306,23.3704966 93.3687273,22.4920054 93.3687273,21.414 C93.3687273,20.3359946 93.0362306,19.4575034 92.3712273,18.7785 C91.7062239,18.0994966 90.8627324,17.76 89.8407273,17.76 C88.8187222,17.76 87.9752306,18.0994966 87.3102273,18.7785 C86.6452239,19.4575034 86.3127273,20.3359946 86.3127273,21.414 C86.3127273,22.4920054 86.6452239,23.3704966 87.3102273,24.0495 C87.9752306,24.7285034 88.8187222,25.068 89.8407273,25.068 L89.8407273,25.068 Z M89.8407273,27.168 C88.1607189,27.168 86.7607329,26.6115056 85.6407273,25.4985 C84.5207217,24.3854944 83.9607273,23.0240081 83.9607273,21.414 C83.9607273,19.803992 84.5207217,18.4425056 85.6407273,17.3295 C86.7607329,16.2164944 88.1607189,15.66 89.8407273,15.66 C91.5207357,15.66 92.9207217,16.2164944 94.0407273,17.3295 C95.1607329,18.4425056 95.7207273,19.803992 95.7207273,21.414 C95.7207273,23.0240081 95.1607329,24.3854944 94.0407273,25.4985 C92.9207217,26.6115056 91.5207357,27.168 89.8407273,27.168 L89.8407273,27.168 Z M100.930636,27 L98.5786364,27 L98.5786364,15.828 L100.930636,15.828 L100.930636,27 Z M98.2846364,12.552 C98.2846364,12.145998 98.4316349,11.7960015 98.7256364,11.502 C99.0196378,11.2079985 99.3696343,11.061 99.7756364,11.061 C100.181638,11.061 100.531635,11.2079985 100.825636,11.502 C101.119638,11.7960015 101.266636,12.145998 101.266636,12.552 C101.266636,12.958002 101.119638,13.3079985 100.825636,13.602 C100.531635,13.8960015 100.181638,14.043 99.7756364,14.043 C99.3696343,14.043 99.0196378,13.8960015 98.7256364,13.602 C98.4316349,13.3079985 98.2846364,12.958002 98.2846364,12.552 L98.2846364,12.552 Z M109.479545,27.168 C107.925538,27.168 106.588551,26.6395053 105.468545,25.5825 C104.34854,24.5254947 103.788545,23.1430085 103.788545,21.435 C103.788545,19.7269915 104.37304,18.3375054 105.542045,17.2665 C106.711051,16.1954946 108.135537,15.66 109.815545,15.66 C111.495554,15.66 112.91654,16.2409942 114.078545,17.403 L112.692545,19.104 C111.726541,18.2639958 110.75355,17.844 109.773545,17.844 C108.793541,17.844 107.943049,18.1694967 107.222045,18.8205 C106.501042,19.4715033 106.140545,20.3114949 106.140545,21.3405 C106.140545,22.3695051 106.497542,23.2409964 107.211545,23.955 C107.925549,24.6690036 108.80404,25.026 109.847045,25.026 C110.890051,25.026 111.873541,24.5500048 112.797545,23.598 L114.183545,25.11 C112.825539,26.4820069 111.257554,27.168 109.479545,27.168 L109.479545,27.168 Z M123.091364,27 L123.091364,12.321 L125.569364,12.321 L125.569364,24.648 L132.268364,24.648 L132.268364,27 L123.091364,27 Z M143.883273,27 L141.741273,27 L141.741273,25.509 C140.817268,26.6150055 139.57828,27.168 138.024273,27.168 C136.862267,27.168 135.899777,26.8390033 135.136773,26.181 C134.373769,25.5229967 133.992273,24.6445055 133.992273,23.5455 C133.992273,22.4464945 134.398269,21.6240027 135.210273,21.078 C136.022277,20.5319973 137.121266,20.259 138.507273,20.259 L141.552273,20.259 L141.552273,19.839 C141.552273,18.3549926 140.726281,17.613 139.074273,17.613 C138.038268,17.613 136.960278,17.9909962 135.840273,18.747 L134.790273,17.277 C136.148279,16.1989946 137.688264,15.66 139.410273,15.66 C140.726279,15.66 141.800769,15.9924967 142.633773,16.6575 C143.466777,17.3225033 143.883273,18.3689929 143.883273,19.797 L143.883273,27 Z M141.531273,22.842 L141.531273,21.897 L138.885273,21.897 C137.191264,21.897 136.344273,22.4289947 136.344273,23.493 C136.344273,24.0390027 136.554271,24.4554986 136.974273,24.7425 C137.394275,25.0295014 137.978769,25.173 138.727773,25.173 C139.476776,25.173 140.13127,24.9630021 140.691273,24.543 C141.251276,24.1229979 141.531273,23.5560036 141.531273,22.842 L141.531273,22.842 Z M157.178182,17.214 C158.242187,18.2500052 158.774182,19.6289914 158.774182,21.351 C158.774182,23.0730086 158.245687,24.4729946 157.188682,25.551 C156.131677,26.6290054 154.899689,27.168 153.492682,27.168 C152.085675,27.168 150.822187,26.5520062 149.702182,25.32 L149.702182,27 L147.350182,27 L147.350182,11.418 L149.702182,11.418 L149.702182,17.781 C150.626186,16.3669929 151.837174,15.66 153.335182,15.66 C154.833189,15.66 156.114176,16.1779948 157.178182,17.214 L157.178182,17.214 Z M150.626182,24.0495 C151.270185,24.7285034 152.054177,25.068 152.978182,25.068 C153.902186,25.068 154.707178,24.7320034 155.393182,24.06 C156.079185,23.3879966 156.422182,22.5165054 156.422182,21.4455 C156.422182,20.3744946 156.086185,19.4855035 155.414182,18.7785 C154.742178,18.0714965 153.937186,17.718 152.999182,17.718 C152.061177,17.718 151.270185,18.0714965 150.626182,18.7785 C149.982179,19.4855035 149.660182,20.3709947 149.660182,21.435 C149.660182,22.4990053 149.982179,23.3704966 150.626182,24.0495 L150.626182,24.0495 Z M168.457091,26.2125 C167.687087,26.8495032 166.700097,27.168 165.496091,27.168 C164.684087,27.168 163.840595,27.0210015 162.965591,26.727 C162.090587,26.4329985 161.317094,26.0200027 160.645091,25.488 L161.779091,23.661 C163.081097,24.6410049 164.341085,25.131 165.559091,25.131 C166.091094,25.131 166.511089,25.0085012 166.819091,24.7635 C167.127092,24.5184988 167.281091,24.2070019 167.281091,23.829 C167.281091,23.2689972 166.539098,22.7650022 165.055091,22.317 C164.94309,22.2749998 164.859091,22.2470001 164.803091,22.233 C162.479079,21.6029969 161.317091,20.5530074 161.317091,19.083 C161.317091,18.0469948 161.719587,17.2175031 162.524591,16.5945 C163.329595,15.9714969 164.376084,15.66 165.664091,15.66 C166.952097,15.66 168.170085,16.0379962 169.318091,16.794 L168.436091,18.537 C167.526086,17.934997 166.539096,17.634 165.475091,17.634 C164.915088,17.634 164.460093,17.735499 164.110091,17.9385 C163.760089,18.141501 163.585091,18.445998 163.585091,18.852 C163.585091,19.2160018 163.767089,19.4819992 164.131091,19.65 C164.383092,19.7760006 164.736589,19.8949994 165.191591,20.007 C165.646593,20.1190006 166.049089,20.2309994 166.399091,20.343 C166.749093,20.4550006 167.088589,20.5809993 167.417591,20.721 C167.746593,20.8610007 168.100089,21.0569987 168.478091,21.309 C169.234095,21.8130025 169.612091,22.5969947 169.612091,23.661 C169.612091,24.7250053 169.227095,25.5754968 168.457091,26.2125 L168.457091,26.2125 Z" id="Heroic-Labs"></path>
            </g>
        </g>
    </g>
</svg>